<?xml version="1.0" encoding="UTF-8" standalone="no"?>
<svg width="171px" height="45px" viewBox="0 0 171 45" version="1.1" xmlns="http://www.w3.org/2000/svg" xmlns:xlink="http://www.w3.org/1999/xlink">
    <!-- Generator: Sketch 40.1 (33804) - http://www.bohemiancoding.com/sketch -->
    <title>Logo/Famous Footwear White</title>
    <desc>Created with Sketch.</desc>
    <defs></defs>
    <g id="Atoms" stroke="none" stroke-width="1" fill="none" fill-rule="evenodd">
        <g transform="translate(-554.000000, -8166.000000)" id="Logo/Famous-Footwear-White" fill="#FFFFFF">
            <g transform="translate(554.000000, 8166.000000)">
                <path d="M54.6679779,29.6064739 C54.6679779,27.1125 56.6431311,25.8388993 59.0449701,25.8388993 C60.0061111,25.8388993 61.2074529,26.0246082 62.0344734,26.3433022 L61.6606588,27.961791 C60.9402253,27.7760821 60.246143,27.6696269 59.3657446,27.6696269 C57.8439661,27.6696269 56.7760692,28.3597388 56.7760692,29.7658209 L56.7760692,31.2516604 L60.0593202,31.2516604 L60.0593202,32.8172575 L56.7760692,32.8172575 L56.7760692,44.7830597 L54.6679779,44.7830597 L54.6679779,32.8172575 L52.8793096,32.8172575 L52.8793096,31.2516604 L54.6679779,31.2516604 L54.6679779,29.6064739" id="Fill-1"></path>
                <path d="M61.4202891,38.1010634 C61.4202891,34.4436381 63.2304098,31.1054104 67.6726043,31.1054104 C72.3680062,31.1054104 74.034547,34.5846828 74.034547,38.083097 C74.034547,41.5081343 72.3445266,45 67.66078,45 C63.1342957,45 61.4202891,41.5297948 61.4202891,38.1010634 L61.4202891,38.1010634 Z M71.5962217,38.0522015 C71.5962217,35.2924254 70.5338991,32.7613433 67.7220971,32.7613433 C64.8844507,32.7613433 63.8584454,35.3046828 63.8584454,38.0522015 C63.8584454,40.6920896 64.8363092,43.3440672 67.7220971,43.3440672 C70.6668372,43.3440672 71.5962217,40.5241791 71.5962217,38.0522015 L71.5962217,38.0522015 Z" id="Fill-2"></path>
                <path d="M75.7733845,38.1010634 C75.7733845,34.4436381 77.5831674,31.1054104 82.0258686,31.1054104 C86.7214394,31.1054104 88.3876424,34.5846828 88.3876424,38.083097 C88.3876424,41.5081343 86.6972842,45 82.0135376,45 C77.4873912,45 75.7733845,41.5297948 75.7733845,38.1010634 L75.7733845,38.1010634 Z M85.9489793,38.0522015 C85.9489793,35.2924254 84.8871635,32.7613433 82.0753615,32.7613433 C79.2377151,32.7613433 78.2117097,35.3046828 78.2117097,38.0522015 C78.2117097,40.6920896 79.1895736,43.3440672 82.0753615,43.3440672 C85.0197638,43.3440672 85.9489793,40.5241791 85.9489793,38.0522015 L85.9489793,38.0522015 Z" id="Fill-3"></path>
                <path d="M98.4889135,42.5542164 L98.9693151,44.2257649 C98.3020907,44.4910634 97.2610516,44.8890112 95.3928232,44.8890112 C93.0705444,44.8890112 91.6558597,43.8011194 91.6558597,41.3867351 L91.6558597,32.8434515 L89.6273285,32.8434515 L89.6273285,31.2516604 L91.6558597,31.2516604 L91.6558597,27.7760821 L93.7646267,27.7760821 L93.7646267,31.2516604 L97.7688179,31.2516604 L97.7688179,32.8434515 L93.7646267,32.8434515 L93.7646267,41.1217724 C93.7646267,42.4215672 94.538776,43.0052239 95.8463669,43.0052239 C97.1548025,43.0052239 98.0352009,42.7404291 98.4889135,42.5542164" id="Fill-4"></path>
                <polyline id="Fill-5" points="113.584402 42.2360261 116.173064 31.2516604 118.281662 31.2516604 114.624934 44.7830597 112.596403 44.7830597 109.259943 34.14375 105.923483 44.7830597 103.841574 44.7830597 100.157988 31.2516604 102.293613 31.2516604 104.962342 42.2622201 108.325829 31.2516604 110.08747 31.2516604 113.584402 42.2360261"></polyline>
                <path d="M130.594233,42.1033769 L131.341524,43.5625187 C129.980724,44.570653 128.192225,44.9424067 126.297139,44.9424067 C123.201048,44.9424067 120.211545,43.3769776 120.211545,40.2724813 L120.211545,35.5229664 C120.211545,32.8963433 123.014394,31.0130597 126.003898,31.0130597 C129.04661,31.0130597 131.608921,32.8701493 131.608921,35.5229664 L131.608921,38.3621642 L122.320312,38.3621642 L122.320312,40.1928918 C122.320312,42.1826306 124.268607,43.138209 126.404063,43.138209 C128.245434,43.138209 129.713834,42.6868657 130.594233,42.1033769 L130.594233,42.1033769 Z M122.320312,35.5498321 L122.320312,36.7703731 L129.580389,36.7703731 L129.580389,35.5498321 C129.580389,33.9313433 127.925335,32.7903918 126.003898,32.7903918 C124.108811,32.7903918 122.346663,33.958041 122.320312,35.5498321 L122.320312,35.5498321 Z" id="Fill-6"></path>
                <path d="M142.028095,36.7332649 L142.028095,35.4875373 C142.028095,34.4651306 141.94144,32.7552985 139.182509,32.7552985 C137.103134,32.7552985 135.632031,33.4920896 134.839807,33.8984328 L134.84876,32.0086007 C135.9474,31.6022575 137.367659,31.0993657 139.641796,31.0993657 C143.349875,31.0993657 144.310509,32.5663993 144.310509,35.5634328 L144.309495,41.1766791 C144.309495,42.2177239 144.309495,43.3657276 145.631107,43.3657276 C145.860834,43.3657276 146.116407,43.3084701 146.346472,43.2577612 L146.545457,44.544459 C145.830598,44.773153 145.384656,44.9227612 144.771147,44.9227612 C142.957141,44.9227612 142.618124,43.7260634 142.363058,43.014459 C141.647354,43.5986194 140.077603,44.9227612 137.85431,44.9227612 C135.609227,44.9227612 133.671911,43.5635261 133.671911,41.3318284 C133.671911,38.0298694 137.157356,36.7421642 140.408513,36.7421642 L142.028095,36.7332649 L142.028095,36.7332649 Z M141.200736,38.0919963 C140.108684,38.0919963 136.025777,38.1188619 136.025777,40.8969403 C136.025777,41.7185261 136.504321,43.1326679 138.525758,43.1415672 C139.394839,43.1457649 140.679288,42.7535261 142.028095,41.6196269 L142.028095,38.0919963 L141.200736,38.0919963 L141.200736,38.0919963 Z" id="Fill-7"></path>
                <path d="M156.291495,31.171903 L155.997747,33.268097 C155.597413,33.1883396 154.956539,33.1354478 154.476644,33.1354478 C152.527673,33.1354478 151.246602,35.0721269 151.246602,36.9826119 L151.246602,44.7830597 L149.084626,44.7830597 L149.084626,31.2516604 L150.899646,31.2516604 L151.112989,33.7189366 C151.647444,32.2861567 152.955035,30.9863619 154.71617,30.9863619 C155.277314,30.9863619 155.784066,31.0394216 156.291495,31.171903" id="Fill-8"></path>
                <polyline id="Fill-9" points="64.584622 4.1913806 57.145323 4.1913806 57.145323 10.1004851 63.4023679 10.1004851 63.4023679 13.728694 57.145323 13.728694 57.145323 23.8881157 52.9735656 23.8881157 52.9735656 0.39005597 64.584622 0.39005597 64.584622 4.1913806"></polyline>
                <path d="M77.7184704,0.321044776 L83.8719688,23.8881157 L79.4914293,23.8881157 L78.1356968,18.324403 L71.9131111,18.324403 L70.5225816,23.8881157 L66.1077518,23.8881157 L72.4345597,0.321044776 L77.7184704,0.321044776 L77.7184704,0.321044776 Z M77.2318189,14.8691418 L75.0421403,4.67496269 L72.8169891,14.8691418 L77.2318189,14.8691418 L77.2318189,14.8691418 Z" id="Fill-10"></path>
                <polyline id="Fill-11" points="93.5367569 0.39005597 97.9517556 12.3118657 102.470976 0.39005597 107.859109 0.39005597 107.859109 23.8881157 104.035829 23.8881157 104.035829 5.19330224 99.2036038 19.5341978 96.9784525 19.5341978 91.937952 5.22822761 91.937952 23.8881157 88.113827 23.8881157 88.113827 0.39005597 93.5367569 0.39005597"></polyline>
                <path d="M129.42431,7.19764925 L129.42431,17.0462687 C129.42431,21.7114925 125.913358,24.2341791 121.289577,24.2341791 L120.837722,24.2341791 C116.110395,24.2341791 112.668024,21.7803358 112.668024,17.0462687 L112.668024,7.19764925 C112.668024,2.77438433 116.283873,0.0444962687 120.802925,0.0444962687 L121.289577,0.0444962687 C125.809136,0.0444962687 129.42431,2.70554104 129.42431,7.19764925 L129.42431,7.19764925 Z M125.113533,7.23223881 C125.113533,5.0898694 123.444796,3.84531716 121.289577,3.84531716 L120.802925,3.84531716 C118.64703,3.84531716 116.979307,5.05511194 116.979307,7.19764925 L116.979307,17.0462687 C116.979307,19.36125 118.543315,20.4323507 120.837722,20.4323507 L121.289577,20.4323507 C123.61895,20.4323507 125.113533,19.3960075 125.113533,17.0462687 L125.113533,7.23223881 L125.113533,7.23223881 Z" id="Fill-12"></path>
                <path d="M146.334142,0.39005597 L150.64458,0.39005597 L150.64458,16.8044776 C150.64458,21.6767351 147.272141,24.2341791 142.405457,24.2341791 C137.503468,24.2341791 134.166333,21.7114925 134.166333,16.8044776 L134.166333,0.39005597 L138.477616,0.39005597 L138.477616,16.8044776 C138.477616,19.2576493 139.937571,20.4323507 142.370997,20.4323507 C144.804086,20.4323507 146.334142,19.2576493 146.334142,16.8044776 L146.334142,0.39005597" id="Fill-13"></path>
                <path d="M170.174662,17.7718097 C170.174662,21.8839366 166.941917,24.1646642 162.874382,24.1646642 C159.467652,24.1646642 156.582371,23.0242164 154.983566,19.8453358 L158.251108,17.2882276 C159.224411,19.2576493 160.406496,20.3633396 162.6656,20.3633396 C164.682307,20.3633396 165.864392,19.7759888 165.864392,17.7372201 C165.864392,15.5258396 162.422358,14.3853918 160.371192,13.1413433 C158.424586,11.8627052 155.782715,10.2039179 155.782715,6.29899254 C155.782715,2.04867537 158.876778,0.0444962687 163.187555,0.0444962687 C165.307977,0.0444962687 167.984476,1.18494403 169.618754,3.15453358 L167.150361,6.33391791 C166.177058,5.26231343 164.334336,3.84531716 162.735363,3.84531716 C160.962404,3.84531716 160.093323,4.43317164 160.093323,6.1955597 C160.093323,8.3379291 164.682307,9.99671642 166.003073,10.8953731 C168.470959,12.5882463 170.174662,13.4521455 170.174662,17.7718097" id="Fill-14"></path>
                <path d="M28.8707166,39.564403 C29.4134488,42.0981716 31.9666379,44.1127612 36.3226844,44.5345522 L38.4821267,44.7498134 L41.1849769,44.7498134 C43.105063,44.7498134 44.6619763,43.2016791 44.6619763,41.2933769 L44.6619763,29.6219216 C41.9564234,29.7283769 41.1312611,29.8971269 40.0005268,30.1362313 C31.7847137,31.8722575 28.0185274,35.5840858 28.8707166,39.564403" id="Fill-15"></path>
                <path d="M14.3051228,28.6263806 C12.6772642,26.1905037 12.8166212,22.6486007 12.8166212,19.8713619 C12.8166212,11.2197761 20.2601431,3.69402985 32.0656236,0.335820896 L3.52699901,0.335820896 C1.60741966,0.335820896 0,1.9526306 0,3.86177239 L0,41.2933769 C0,43.2030224 1.60741966,44.4962687 3.52699901,44.4962687 L31.7049846,44.4962687 C23.2815718,42.6492537 16.622672,37.544944 16.622672,31.8331343 C16.622672,28.4415112 18.7251891,25.093041 22.0396898,22.7387687 C27.4276537,18.8892537 32.7700099,16.2574254 44.4253227,15.4934328 L44.4253227,12.4880037 C26.5200596,13.651959 17.1909107,20.4886007 14.3051228,28.6263806" id="Fill-16"></path>
                <path d="M153.261789,43.2077239 L154.467185,43.2077239 L154.467185,43.4851119 L154.015499,43.4851119 L154.015499,44.7875933 L153.707056,44.7875933 L153.707056,43.4851119 L153.261789,43.4851119 L153.261789,43.2077239 L153.261789,43.2077239 Z M154.949614,43.2077239 L155.318192,43.8966604 L155.665317,43.2077239 L155.96616,43.2077239 L155.96616,44.780709 L155.657716,44.780709 L155.657716,43.8671082 L155.408732,44.3686567 L155.213125,44.3686567 L154.957553,43.8516604 L154.957553,44.780709 L154.648096,44.780709 L154.648096,43.2077239 L154.949614,43.2077239 L154.949614,43.2077239 Z" id="Fill-17"></path>
            </g>
        </g>
    </g>
</svg>