<?xml version="1.0" encoding="UTF-8" standalone="no"?>
<svg width="91px" height="29px" viewBox="0 0 91 29" version="1.1" xmlns="http://www.w3.org/2000/svg" xmlns:xlink="http://www.w3.org/1999/xlink">
    <!-- Generator: Sketch 40.1 (33804) - http://www.bohemiancoding.com/sketch -->
    <title>Atoms/Icon/paypal</title>
    <desc>Created with Sketch.</desc>
    <defs></defs>
    <g id="Atoms" stroke="none" stroke-width="1" fill="none" fill-rule="evenodd">
        <g id="Atoms/Icon/paypal" fill="#53565A">
            <path d="M54.8889963,0 C55.5192789,0.0241102035 56.1501675,0.0672163249 56.7804501,0.0679469371 C58.2507054,0.0701387738 59.6967191,0.18703673 61.1051583,0.795636715 C63.3026628,1.74543261 64.1396053,4.19590602 63.9971857,6.55213045 C63.7862834,10.0539549 61.7184717,12.9230691 58.3143397,13.8158772 C57.0743799,14.1409997 55.7847248,14.1921425 54.5174932,14.3579915 C54.2896218,14.3879466 54.0569021,14.3616445 53.8272125,14.3718731 C52.7423992,14.4222854 52.2690813,14.8672282 51.9715152,16.1202282 C51.6200114,17.5982567 51.2812345,19.0799383 50.9230643,20.5550444 C50.7030714,21.4610036 50.5806512,21.5684036 49.7946161,21.5567138 C48.861313,21.5428321 47.9249797,21.5501383 46.9953129,21.4610036 C46.2523067,21.3894036 46.122614,21.1066566 46.2898813,20.207273 C46.508662,19.0266036 46.7413818,17.8503179 46.9734954,16.6740322 C47.9710389,11.6328079 48.9716125,6.59304474 49.9685498,1.55108976 C50.0964245,0.901575488 50.2333897,0.266673463 50.8309461,0 L54.8889963,0 L54.8889963,0 Z M55.9701733,3.88247338 C55.9683552,3.90731419 55.965931,3.93215501 55.9641129,3.95772643 C55.7204845,3.95772643 55.4714016,3.92119582 55.2326215,3.96503256 C54.7641518,4.0512448 54.2368962,4.12430602 54.0896283,4.79062437 C53.7811534,6.1904774 53.4708605,7.5947141 53.2587461,9.01794672 C53.1187507,9.95970588 53.404802,10.2526814 54.2072002,10.3103997 C55.4144338,10.3980732 56.528337,9.99769772 57.6210289,9.42782018 C58.451911,8.99383652 58.8846243,8.25884062 59.0197714,7.18922432 C59.2234011,5.57749374 58.6822066,4.51664479 57.3701279,4.13745704 C56.913173,4.00521623 56.4374309,3.96503256 55.9701733,3.88247338 Z M90.2872421,2.39421627 C90.0993694,2.42563259 89.9866457,2.37375913 89.9975545,2.09904893 C90.0120995,1.72862853 90.0011907,1.35674691 89.93089,0.961485691 C89.8121059,1.30341221 89.7048367,1.65337547 89.5678714,1.98434281 C89.5193882,2.10197138 89.4060585,2.21813872 89.3036376,2.25028566 C89.2557604,2.26562852 89.1394005,2.09174281 89.0975837,1.97995914 C88.9581943,1.61026935 88.8388042,1.22962038 88.6460832,0.868697938 C88.6218415,1.37939588 88.5975999,1.89009383 88.5727522,2.40152239 C88.5182085,2.39713872 88.4630588,2.39348566 88.4079091,2.38983259 L88.4079091,0.149044894 C88.6557798,0.0343387747 88.7733518,0.130779589 88.8442586,0.432522438 C88.9594063,0.922763243 89.1127347,1.39985303 89.250306,1.88278771 C89.2963651,1.88863261 89.3424242,1.89520812 89.3884833,1.90178363 C89.5448419,1.41811833 89.7163515,0.940297936 89.8508926,0.447865295 C89.9278598,0.166579588 90.0478559,0.0467591825 90.2872421,0.104477548 L90.2872421,2.39421627 Z M65.4947129,9.40882426 C65.4862283,9.16553039 65.4680471,8.99822019 65.4753196,8.8316406 C65.5122881,8.01846919 65.5631955,7.2060284 65.5928915,6.39212638 C65.6098607,5.93257128 65.7553105,5.67539578 66.1583277,5.57311007 C68.5776432,4.96012641 71.0139278,4.65253866 73.4793024,5.01492233 C74.0992823,5.10624886 74.7228984,5.30278354 75.3077279,5.5687264 C76.9113123,6.29933862 77.5506855,7.63270594 77.2137267,9.66380793 C76.6507147,13.0531181 76.0307348,16.4285465 75.4216636,19.8061669 C75.3549991,20.1722036 75.2234882,20.5287424 75.0840988,20.8677464 C74.8828932,21.3572566 74.5174505,21.6305056 74.0774648,21.6363505 C73.0859818,21.6495015 72.0932867,21.6093178 71.1011977,21.5859383 C71.0345332,21.584477 70.9684747,21.5428321 70.884235,21.5136076 C70.9618083,21.0036403 71.0357453,20.5155913 71.1254393,19.9252567 C70.8890834,20.0896444 70.7109073,20.2116567 70.5345494,20.3365913 C69.3788293,21.1541464 68.1946253,21.884028 66.8449721,22.1192852 C64.8080685,22.4750933 62.6238969,21.2104036 62.2772415,18.4450363 C62.0233103,16.4263547 62.6117761,14.748869 63.9729441,13.5309384 C65.2244186,12.4101793 66.6940679,11.9228609 68.2134126,11.6634936 C69.6060947,11.4260446 71.0042311,11.2309712 72.4023676,11.044665 C72.792658,10.9927916 72.9023514,10.7852977 72.8775037,10.338163 C72.8102332,9.13557529 72.1199525,8.40934673 70.9363546,8.32313449 C69.2733782,8.20331409 67.686157,8.66213857 66.1110565,9.22178753 C65.9243959,9.28827324 65.7340991,9.33649365 65.4947129,9.40882426 Z M72.2326761,13.9240078 C71.7054205,13.9766119 71.2284663,13.9780731 70.7672691,14.0803588 C69.8848735,14.2761629 68.9982356,14.4756201 68.1370514,14.7744405 C67.4491949,15.0140813 67.020724,15.6453302 66.8383057,16.4964935 C66.5861926,17.674971 66.9849676,18.4508812 67.9655418,18.6401098 C69.1176257,18.8629465 70.1830457,18.5144444 71.1775589,17.8349751 C71.3605832,17.710771 71.5520922,17.4609016 71.6029996,17.2263751 C71.8369314,16.145069 72.022986,15.04842 72.2326761,13.9240078 Z M85.5686072,0.0745224472 C85.1564994,2.29923668 84.766209,4.40559173 84.3759186,6.51121617 C83.5250371,11.0972691 82.6723375,15.6825915 81.8232742,20.269375 C81.6457042,21.2301301 81.4796489,21.4098607 80.6505849,21.3996321 C79.9893943,21.3915954 79.3288096,21.3499505 78.6676189,21.3367995 C77.6894689,21.317073 77.5149291,21.0606281 77.7203769,19.9237954 C78.0282457,18.2185465 78.3264179,16.5103751 78.6397411,14.807318 C79.468199,10.3030936 80.3008993,5.80106108 81.1372358,1.29902854 C81.3251085,0.28859183 81.5275262,0.086942855 82.3656808,0.0774448961 C83.4135256,0.0650244882 84.4619765,0.0745224472 85.5686072,0.0745224472 Z M87.0976485,0.35434693 C86.8643228,0.319277543 86.6922071,0.293706115 86.5194855,0.267404075 C86.5213036,0.230873464 86.5225157,0.19361224 86.5243338,0.156351017 L87.9721656,0.156351017 C87.978226,0.184844893 87.9842864,0.212608158 87.9903469,0.241102035 C87.8042923,0.276902034 87.6182377,0.313432645 87.4049113,0.35434693 C87.2394621,1.00166936 87.4885449,1.74689384 87.2570373,2.39933055 C87.2043117,2.39421627 87.1503741,2.38983259 87.0976485,2.38471831 L87.0976485,0.35434693 Z M8.63305331,0 C9.36454474,0.0248408157 10.0960362,0.0672163249 10.8281336,0.0694081616 C12.1559693,0.0730612227 13.4601695,0.214799995 14.7328555,0.730612227 C17.2642885,1.75639179 17.9703262,4.52175907 17.7418488,6.88821208 C17.4254954,10.172314 15.4316207,12.9252609 12.1014257,13.814416 C10.8905558,14.1373466 9.62999067,14.1943343 8.39063693,14.3565303 C8.09125271,14.3959833 7.78580807,14.3543384 7.48521176,14.3799099 C6.47675962,14.4653915 6.05071283,14.8818405 5.77011587,16.0552037 C5.42043024,17.5156975 5.0852896,18.9813057 4.73257377,20.4410689 C4.48833927,21.4529668 4.3556163,21.5749791 3.49140191,21.5552525 C2.52961492,21.5333342 1.56661585,21.5077627 0.607253031,21.4295872 C0.398168903,21.4127832 0.201811636,21.1658362 0,21.0248281 L0,20.2964077 C0.11514778,19.7674444 0.238780134,19.240673 0.344231259,18.7087873 C1.49752718,12.8974976 2.64900499,7.08474677 3.7962405,1.27199589 C3.90775204,0.707963248 4.10895763,0.239640811 4.57560916,0 L8.63305331,0 Z M8.67790034,10.3213589 C9.48696501,10.2994406 10.5323856,9.91367731 11.5414438,9.3335712 C12.2317245,8.93684876 12.6135303,8.30121612 12.7565559,7.39598758 C13.009881,5.79302435 12.5783799,4.59408968 11.42569,4.25362439 C10.6184435,4.0154448 9.75483511,3.99498766 8.91607444,3.98987337 C8.40336379,3.98695092 7.93004581,4.26531418 7.78580807,4.97839172 C7.54702793,6.15175495 7.27249138,7.31708145 7.08219453,8.50140388 C6.83977815,10.0101181 7.0906791,10.3301263 8.67790034,10.3213589 Z M32.2031979,28.8314197 C32.1589569,28.585934 32.0298702,28.3061095 32.0874441,28.1037299 C32.2177429,27.6522116 32.4237968,27.2269953 32.6292447,26.8134687 C33.2637695,25.5370892 33.9207179,24.2767831 34.5467582,22.993828 C34.6425127,22.7965627 34.6728148,22.5050484 34.6437248,22.274175 C34.1825276,18.6496077 33.7067855,15.0286935 33.2346796,11.4063181 C33.0165048,9.73175487 32.7977241,8.05792225 32.5843976,6.3818978 C32.5559137,6.1605223 32.5437929,5.93403251 32.5468231,5.70973456 C32.5547016,5.18223253 32.8025724,4.85857131 33.2377098,4.8519958 C34.143741,4.83884478 35.0497722,4.83519172 35.9558034,4.86076315 C36.5430571,4.87756723 36.7897158,5.12816722 36.8897125,5.83466925 C37.1812182,7.89718756 37.4490883,9.96482017 37.7266551,12.0302609 C37.8478633,12.9347589 37.9660413,13.8399874 38.0939159,14.7437547 C38.1193696,14.9234854 38.1811858,15.0959098 38.2617893,15.4122649 C38.4551163,15.0900649 38.6011722,14.8854935 38.7114716,14.6568119 C40.0350651,11.9213997 41.3701733,9.19329365 42.6640707,6.43815495 C43.186478,5.32616314 43.8931217,4.77528152 44.9694505,4.83446111 C45.9869932,4.88998764 47.0087783,4.8461509 48.115409,4.8461509 C48.0045035,5.08798355 47.9293545,5.26186926 47.8469329,5.42991007 C45.0603566,11.0841181 42.268932,16.7346731 39.4890222,22.3925341 C38.6993508,24.0006117 37.9363453,25.6284157 37.1684914,27.2518361 C36.8169876,27.9955993 36.37882,28.6078524 35.6564192,28.8314197 L32.2031979,28.8314197 Z M19.2048316,9.4351263 C19.2763445,8.2398447 19.3266459,7.17168962 19.417552,6.10791822 C19.432097,5.93622435 19.609667,5.67904884 19.7454201,5.64324884 C22.5580562,4.90825294 25.3882674,4.50714683 28.2457505,5.23848967 C28.7427041,5.3656162 29.2269308,5.63302027 29.6814615,5.91722843 C30.7165794,6.56601209 31.1777766,7.6663141 31.0177818,9.02086917 C30.8171822,10.7297712 30.5087074,12.4211385 30.2178077,14.113967 C29.8893335,16.0259792 29.5354056,17.9321465 29.1766294,19.8368526 C29.111177,20.1860852 28.9893627,20.5250893 28.8614881,20.8509424 C28.6821,21.3083056 28.3481714,21.6056648 27.9481844,21.6217383 C26.8736738,21.6633831 25.7973451,21.6356199 24.6531398,21.6356199 C24.7343492,21.0262893 24.8016198,20.5243587 24.8797991,19.9384077 C24.552537,20.1656281 24.2834548,20.3548566 24.0131605,20.5404322 C22.9362257,21.2820036 21.8259587,21.9278648 20.5787265,22.1265913 C18.1939553,22.505779 15.8976662,20.7493873 15.9909965,17.4725914 C16.0406918,15.7213139 16.7140033,14.3178078 17.9424483,13.3512078 C19.1678631,12.3860691 20.541758,11.903865 21.9756508,11.6642242 C23.368939,11.4311589 24.7688936,11.2514283 26.1646059,11.0344365 C26.6561051,10.9577222 26.7161031,10.839363 26.654287,10.2512202 C26.5276244,9.0705508 25.8331015,8.40131 24.6773814,8.32167327 C23.02895,8.20842837 21.4562737,8.66725285 19.8939002,9.21594263 C19.7048154,9.28169773 19.5133065,9.33722426 19.2048316,9.4351263 Z M26.003399,13.9232772 C25.4767494,13.9766119 25.0131281,13.9766119 24.5652638,14.078167 C23.6531722,14.2841997 22.7289597,14.4661221 21.8495943,14.8065874 C21.0265907,15.1244037 20.6041802,15.9412282 20.5496365,16.9874649 C20.5035774,17.867122 20.8738684,18.4611098 21.592633,18.6174608 C22.8344109,18.8877873 23.9840705,18.5363628 25.0500966,17.7567996 C25.1767591,17.6647424 25.3191788,17.5010853 25.351905,17.3403506 C25.5815945,16.2203221 25.7840122,15.0922568 26.003399,13.9232772 L26.003399,13.9232772 Z" id="icon_paypal"></path>
        </g>
    </g>
</svg>